<svg width="284" height="68" viewBox="0 0 284 68" fill="none" xmlns="http://www.w3.org/2000/svg">
<rect x="5" y="1" width="278" height="58" rx="29" fill="#EEF0F4"/>
<rect x="5" y="1" width="278" height="58" rx="29" stroke="#8B8FA5" stroke-width="2"/>
<rect x="5" y="1" width="278" height="58" rx="29" stroke="#8B8FA5" stroke-width="2"/>
<rect x="5" y="1" width="278" height="58" rx="29" stroke="#8B8FA5" stroke-width="2"/>
<rect x="5" y="1" width="278" height="58" rx="29" stroke="#8B8FA5" stroke-width="2"/>
<g filter="url(#filter0_d_43_982)">
<rect x="4" width="60" height="60" rx="30" fill="#EEF0F4"/>
<rect x="5" y="1" width="58" height="58" rx="29" stroke="#F3F3F3" stroke-width="2"/>
</g>
<path d="M27.1992 18.4L27.2112 25.6L31.9992 30.4L27.2112 35.212L27.1992 42.4H41.5992V35.2L36.7992 30.4L41.5992 25.612V18.4H27.1992ZM39.1992 35.8V40H29.5992V35.8L34.3992 31L39.1992 35.8Z" fill="#8B8FA5"/>
<circle cx="34" cy="30" r="24" stroke="#8B8FA5" stroke-width="2"/>
<defs>
<filter id="filter0_d_43_982" x="0" y="0" width="68" height="68" filterUnits="userSpaceOnUse" color-interpolation-filters="sRGB">
<feFlood flood-opacity="0" result="BackgroundImageFix"/>
<feColorMatrix in="SourceAlpha" type="matrix" values="0 0 0 0 0 0 0 0 0 0 0 0 0 0 0 0 0 0 127 0" result="hardAlpha"/>
<feOffset dy="4"/>
<feGaussianBlur stdDeviation="2"/>
<feComposite in2="hardAlpha" operator="out"/>
<feColorMatrix type="matrix" values="0 0 0 0 0 0 0 0 0 0 0 0 0 0 0 0 0 0 0.25 0"/>
<feBlend mode="normal" in2="BackgroundImageFix" result="effect1_dropShadow_43_982"/>
<feBlend mode="normal" in="SourceGraphic" in2="effect1_dropShadow_43_982" result="shape"/>
</filter>
</defs>
</svg>
