<svg width="68" height="68" viewBox="0 0 68 68" fill="none" xmlns="http://www.w3.org/2000/svg">
<g filter="url(#filter0_d_49_23)">
<rect x="4" width="60" height="60" rx="30" fill="#EEF0F4"/>
<rect x="5" y="1" width="58" height="58" rx="29" stroke="#F3F3F3" stroke-width="2"/>
</g>
<rect width="30" height="30" transform="translate(19 15)" fill="#EEF0F4"/>
<path d="M33.9996 42.5C35.3746 42.5 36.4996 41.375 36.4996 40H31.4996C31.4996 41.375 32.6246 42.5 33.9996 42.5ZM41.4996 35V28.75C41.4996 24.9125 39.4621 21.7 35.8746 20.85V20C35.8746 18.9625 35.0371 18.125 33.9996 18.125C32.9621 18.125 32.1246 18.9625 32.1246 20V20.85C28.5496 21.7 26.4996 24.9 26.4996 28.75V35L23.9996 37.5V38.75H43.9996V37.5L41.4996 35ZM38.9996 36.25H28.9996V28.75C28.9996 25.65 30.8871 23.125 33.9996 23.125C37.1121 23.125 38.9996 25.65 38.9996 28.75V36.25ZM28.4746 20.1L26.6871 18.3125C23.6871 20.6 21.7121 24.125 21.5371 28.125H24.0371C24.2246 24.8125 25.9246 21.9125 28.4746 20.1V20.1ZM43.9621 28.125H46.4621C46.2746 24.125 44.2996 20.6 41.3121 18.3125L39.5371 20.1C42.0621 21.9125 43.7746 24.8125 43.9621 28.125Z" fill="#2DBD8C"/>
<g filter="url(#filter1_d_49_23)">
<circle cx="34" cy="30" r="19" stroke="#F3F3F3" stroke-width="2" shape-rendering="crispEdges"/>
</g>
<defs>
<filter id="filter0_d_49_23" x="0" y="0" width="68" height="68" filterUnits="userSpaceOnUse" color-interpolation-filters="sRGB">
<feFlood flood-opacity="0" result="BackgroundImageFix"/>
<feColorMatrix in="SourceAlpha" type="matrix" values="0 0 0 0 0 0 0 0 0 0 0 0 0 0 0 0 0 0 127 0" result="hardAlpha"/>
<feOffset dy="4"/>
<feGaussianBlur stdDeviation="2"/>
<feComposite in2="hardAlpha" operator="out"/>
<feColorMatrix type="matrix" values="0 0 0 0 0 0 0 0 0 0 0 0 0 0 0 0 0 0 0.25 0"/>
<feBlend mode="normal" in2="BackgroundImageFix" result="effect1_dropShadow_49_23"/>
<feBlend mode="normal" in="SourceGraphic" in2="effect1_dropShadow_49_23" result="shape"/>
</filter>
<filter id="filter1_d_49_23" x="10" y="10" width="48" height="48" filterUnits="userSpaceOnUse" color-interpolation-filters="sRGB">
<feFlood flood-opacity="0" result="BackgroundImageFix"/>
<feColorMatrix in="SourceAlpha" type="matrix" values="0 0 0 0 0 0 0 0 0 0 0 0 0 0 0 0 0 0 127 0" result="hardAlpha"/>
<feOffset dy="4"/>
<feGaussianBlur stdDeviation="2"/>
<feComposite in2="hardAlpha" operator="out"/>
<feColorMatrix type="matrix" values="0 0 0 0 0 0 0 0 0 0 0 0 0 0 0 0 0 0 0.25 0"/>
<feBlend mode="normal" in2="BackgroundImageFix" result="effect1_dropShadow_49_23"/>
<feBlend mode="normal" in="SourceGraphic" in2="effect1_dropShadow_49_23" result="shape"/>
</filter>
</defs>
</svg>
